<svg xmlns="http://www.w3.org/2000/svg" viewBox="-0.003525275969877839 -0.0038033658638596535 264.3553466796875 249.5738983154297"><g><g fill="#3699ea"><path d="M88.26 14.26a19 19 0 0 0 18.69 5.47l65.67-17a1.38 1.38 0 0 0-.37-2.73L87.36 1a5 5 0 0 0-3.63 8.44zM204.69 14.78a10.81 10.81 0 0 0-14-7l-65.62 23.58a5.34 5.34 0 0 0-.92 9.62l98.48 58.41a4.39 4.39 0 0 0 6.43-5.06zM103 177.28a6.6 6.6 0 0 0 9.88 5.69l99.32-57.07.09-.05a6.62 6.62 0 0 0 .08-11.44L112.1 54.94a6.42 6.42 0 0 0-9.7 5.55zM263.73 136.83a5.62 5.62 0 0 0-5.94-8.11 18.67 18.67 0 0 0-14.57 12.6l-27.67 85.05a.92.92 0 0 0 1.69.7zM258.31 113.62a4.34 4.34 0 0 0 4.7-6.3L217.6 22.4a.76.76 0 0 0-1.39.63L246 103.09a16.74 16.74 0 0 0 12.31 10.53zM75.55 180.29a5.87 5.87 0 0 0 9.24-4.84l-.53-112.18A5.5 5.5 0 0 0 75.34 59L3.2 116.43A8.46 8.46 0 0 0 3.62 130zM2.32 99.68a1.64 1.64 0 0 0 2.53 2l66.77-62a11.35 11.35 0 0 0 .6-16l-7.49-8.08A8.45 8.45 0 0 0 51.25 17zM107.85 219.33a15.23 15.23 0 0 0-17.45 5.08l-10.09 13.38a5.83 5.83 0 0 0 4.51 9.35l93.49 2.43a1.9 1.9 0 0 0 .71-3.67zM226.49 147.65a4.73 4.73 0 0 0-6.94-5.3l-95.85 55.31a5.83 5.83 0 0 0 .5 10.36l66.92 30.4a9.55 9.55 0 0 0 13.2-6.28zM74.21 215.48a11.75 11.75 0 0 0-2.06-16.19L6 146.19a2.07 2.07 0 0 0-3.08 2.67l47.64 80.84a7.54 7.54 0 0 0 12.54.68z"></path></g></g></svg>